# Blender v2.80 (sub 75) OBJ File: 'quarter_cylinder.blend'
# www.blender.org
mtllib quarter_cylinder.mtl
o Cylinder
v 0.000000 -1.000000 -1.000000
v 0.000000 1.000000 -1.000000
v 0.000000 1.000000 0.000000
v -1.000000 -1.000000 -0.000001
v -1.000000 1.000000 -0.000001
v -0.980785 -1.000000 -0.195091
v -0.980785 1.000000 -0.195091
v -0.923879 -1.000000 -0.382684
v -0.923879 1.000000 -0.382684
v -0.831469 -1.000000 -0.555571
v -0.831469 1.000000 -0.555571
v -0.707106 -1.000000 -0.707108
v -0.707106 1.000000 -0.707108
v -0.555569 -1.000000 -0.831470
v -0.555569 1.000000 -0.831470
v -0.382682 -1.000000 -0.923880
v -0.382682 1.000000 -0.923880
v -0.195089 -1.000000 -0.980786
v -0.195089 1.000000 -0.980786
v 0.000000 -1.000000 0.000000
vt 0.250000 0.500000
vt 0.250000 1.000000
vt 0.218750 1.000000
vt 0.218750 0.500000
vt 0.187500 1.000000
vt 0.187500 0.500000
vt 0.156250 1.000000
vt 0.156250 0.500000
vt 0.125000 1.000000
vt 0.125000 0.500000
vt 0.093750 1.000000
vt 0.093750 0.500000
vt 0.062500 1.000000
vt 0.062500 0.500000
vt 0.031250 1.000000
vt 0.031250 0.500000
vt 0.000000 1.000000
vt 0.000000 0.500000
vt 0.000000 0.000000
vt 0.000000 0.000000
vn -0.9952 0.0000 -0.0980
vn -0.9569 0.0000 -0.2903
vn -0.8819 0.0000 -0.4714
vn -0.7730 0.0000 -0.6344
vn -0.6344 0.0000 -0.7730
vn -0.4714 0.0000 -0.8819
vn -0.2903 0.0000 -0.9569
vn -0.0980 0.0000 -0.9952
vn 1.0000 0.0000 0.0000
vn -0.0000 0.0000 1.0000
vn 0.0000 1.0000 0.0000
vn 0.0000 -1.0000 0.0000
usemtl None
s off
f 4/1/1 5/2/1 7/3/1 6/4/1
f 6/4/2 7/3/2 9/5/2 8/6/2
f 8/6/3 9/5/3 11/7/3 10/8/3
f 10/8/4 11/7/4 13/9/4 12/10/4
f 12/10/5 13/9/5 15/11/5 14/12/5
f 14/12/6 15/11/6 17/13/6 16/14/6
f 16/14/7 17/13/7 19/15/7 18/16/7
f 18/16/8 19/15/8 2/17/8 1/18/8
f 1/18/9 2/17/9 3/19/9 20/20/9
f 5/2/10 4/1/10 20/20/10 3/19/10
f 7/3/11 5/2/11 3/19/11 2/17/11 19/15/11 17/13/11 15/11/11 13/9/11 11/7/11 9/5/11
f 4/1/12 6/4/12 8/6/12 10/8/12 12/10/12 14/12/12 16/14/12 18/16/12 1/18/12 20/20/12
